<?xml version="1.0" encoding="utf-8"?>
<!-- Uploaded to: SVG Repo, www.svgrepo.com, Generator: SVG Repo Mixer Tools -->
<svg width="800px" height="800px" viewBox="0 0 1024 1024" class="icon"  version="1.1" xmlns="http://www.w3.org/2000/svg"><path d="M530.53952 251.58144v677.77536H439.42912v-664.064a770.78016 770.78016 0 0 1 91.1104-13.71136z" fill="#5FCEFF" /><path d="M862.95552 258.13504c-92.2624-41.55904-199.04-59.14112-310.13376-52.8128-46.32064 2.59072-93.4144 9.33376-140.47232 20.27008-74.71104 17.32608-149.4528 45.07648-221.22496 83.31264L119.16288 181.02272c272.63488-129.34656 579.31264-92.86656 743.79264 77.11232z" fill="#FFB578" /><path d="M968.45312 329.61536l-0.18944-1.28a22.04672 22.04672 0 0 0-1.96096-5.62176c-0.18944-0.384-0.32256-0.78336-0.53248-1.152-0.22528-0.384-0.44544-0.79872-0.67072-1.18272v0l-0.03072-0.03072c-73.1136-128.96256-205.49632-217.5488-372.88448-249.48736-165.19168-31.52384-345.58976-3.87072-508.72832 77.80864-1.72544 0.82944-3.42016 1.69472-5.11488 2.56a22.35904 22.35904 0 0 0-11.0592 28.6464l0.384 0.82944c0.22528 0.44544 0.48128 0.896 0.73728 1.34144l0.92672 1.62816 0.128 0.22528 93.31712 165.85728 0.18944 0.31744c1.024 1.82272 2.26816 3.45088 3.67616 4.8896a22.4256 22.4256 0 0 0 5.98016 4.25472c0.896 0.41472 1.792 0.79872 2.71872 1.08544a22.37952 22.37952 0 0 0 17.90464-1.56672c0.68608-0.37376 1.25952-0.86016 1.88416-1.29536-0.55808 0.384-1.05984 0.82944-1.664 1.16736 65.18272-36.70016 133.08928-64.256 201.21088-82.57536v675.69664a22.38464 22.38464 0 0 0 22.37952 22.37952h135.86944a22.36416 22.36416 0 0 0 22.37952-22.37952V248.86272c134.528-3.9936 260.64384 29.76256 357.38112 101.43744 0.09728 0.06656 0.15872 0.128 0.256 0.18944 0.512 0.384 1.024 0.70144 1.536 1.05472 0.512 0.31744 1.05472 0.60928 1.59744 0.896l1.62816 0.768c0.48128 0.18944 0.95744 0.384 1.43872 0.512 0.44544 0.15872 0.92672 0.31744 1.37216 0.41472 0.54272 0.15872 1.12128 0.28672 1.69472 0.384l1.18272 0.18944c0.384 0.06144 0.768 0.09728 1.152 0.128 0.54272 0.03072 1.12128 0.06144 1.69472 0.06144 0.48128 0 0.99328 0 1.46944-0.03072 0.768-0.06144 1.536-0.15872 2.304-0.28672 0.64-0.09728 1.28-0.22528 1.92-0.41472 0.44544-0.09728 0.896-0.22528 1.31072-0.384a21.42208 21.42208 0 0 0 7.3216-4.02944 23.04 23.04 0 0 0 0.95744-0.82944c0.35328-0.31744 0.67072-0.64 0.99328-0.99328a12.7488 12.7488 0 0 0 0.896-0.99328c0.32256-0.35328 0.57344-0.70144 0.86528-1.08544 0.22528-0.31744 0.44544-0.64 0.64-0.95744 0.28672-0.41472 0.54272-0.82944 0.79872-1.24928 0.22528-0.41472 0.44544-0.86528 0.67072-1.28l0.00512-0.02048a21.0944 21.0944 0 0 0 2.23232-8.35584 22.48192 22.48192 0 0 0 0-2.87744c-0.04096-0.50176-0.07168-1.01376-0.16896-1.49504z m-317.5936-221.44z m-426.67008 8.00768z m-27.13088 239.90272c0.52736-0.45056 0.95232-0.98816 1.4336-1.47968-0.48128 0.49152-0.90624 1.024-1.4336 1.47968z m3.0208-3.15904c0.42496-0.54272 0.73728-1.14688 1.10592-1.72032-0.36864 0.57344-0.68096 1.1776-1.10592 1.72032z m2.31424-3.62496c0.3072-0.60416 0.50176-1.25952 0.75264-1.88928-0.25088 0.62976-0.44544 1.28-0.75264 1.88928z m1.56672-3.97312c0.19456-0.6656 0.26112-1.36192 0.38912-2.048-0.128 0.68608-0.19456 1.3824-0.38912 2.048z m0.78848-4.19328c0.06656-0.72704-0.00512-1.4592-0.01024-2.19136 0.01024 0.73216 0.0768 1.46432 0.01024 2.19136z m212.3008-115.0976z m21.5808 16.49664c-0.01024-0.04608-0.03584-0.08704-0.04608-0.13312 0.01024 0.04608 0.03584 0.08704 0.04608 0.13312z m91.91424 686.8224H439.42912v-664.064a771.8656 771.8656 0 0 1 91.1104-13.71648v677.78048z m22.28224-724.03456c-46.32064 2.59072-93.4144 9.33376-140.47232 20.27008-74.71104 17.32608-149.4528 45.07648-221.22496 83.31264l10.83904 19.24608c0.03072 0.09728 0.09728 0.15872 0.128 0.256-0.03072-0.09728-0.09728-0.15872-0.128-0.256l-10.83904-19.24608-71.96672-127.88224c272.62976-129.34656 579.31264-92.87168 743.79264 77.1072-92.2624-41.55392-199.04-59.14112-310.12864-52.80768zM204.7232 336.83456c-0.08192-0.80896-0.31744-1.60256-0.49152-2.4064 0.1792 0.80384 0.4096 1.59744 0.49152 2.4064z m695.51104-34.51904z" fill="#4F46A3" /><path d="M83.456 148.66944c-1.72544 0.82944-3.42016 1.69472-5.11488 2.56a22.35904 22.35904 0 0 0-11.0592 28.6464 22.36416 22.36416 0 0 1 9.01632-28.48256 22.7072 22.7072 0 0 1 7.15776-2.72384z m-15.05792 33.37728l0.92672 1.62816a17.03936 17.03936 0 0 1-1.664-2.97472c0.22528 0.45056 0.48128 0.90112 0.73728 1.34656z m-1.12128-2.17088l0.384 0.82944c-0.15872-0.28672-0.256-0.54272-0.384-0.82944z" fill="#4F46A3" /></svg>